<svg xmlns="http://www.w3.org/2000/svg" xmlns:xlink="http://www.w3.org/1999/xlink" width="800" zoomAndPan="magnify" viewBox="0 0 600 599.999999" height="800" preserveAspectRatio="xMidYMid meet" version="1.0"><defs><g/><clipPath id="d5bc124ff0"><path d="M 147 113.328125 L 452.929688 113.328125 L 452.929688 486.828125 L 147 486.828125 Z M 147 113.328125 " clip-rule="nonzero"/></clipPath><clipPath id="563308937d"><path d="M 55 36 L 309 36 L 309 289 L 55 289 Z M 55 36 " clip-rule="nonzero"/></clipPath><clipPath id="09c109e976"><path d="M 97.773438 16.273438 L 323.375 54.089844 L 278.367188 322.59375 L 52.765625 284.777344 Z M 97.773438 16.273438 " clip-rule="nonzero"/></clipPath><clipPath id="c3b6f643d0"><path d="M 97.773438 16.273438 L 323.375 54.089844 L 278.367188 322.59375 L 52.765625 284.777344 Z M 97.773438 16.273438 " clip-rule="nonzero"/></clipPath><clipPath id="79d8212aea"><path d="M 134 51 L 291 51 L 291 209 L 134 209 Z M 134 51 " clip-rule="nonzero"/></clipPath><clipPath id="f95c28a2da"><path d="M 97.773438 16.273438 L 323.375 54.089844 L 278.367188 322.59375 L 52.765625 284.777344 Z M 97.773438 16.273438 " clip-rule="nonzero"/></clipPath><clipPath id="bdfacf8b38"><path d="M 97.773438 16.273438 L 323.375 54.089844 L 278.367188 322.59375 L 52.765625 284.777344 Z M 97.773438 16.273438 " clip-rule="nonzero"/></clipPath><clipPath id="d2919fff39"><path d="M 166 65 L 248 65 L 248 93 L 166 93 Z M 166 65 " clip-rule="nonzero"/></clipPath><clipPath id="759b9dfcac"><path d="M 97.773438 16.273438 L 323.375 54.089844 L 278.367188 322.59375 L 52.765625 284.777344 Z M 97.773438 16.273438 " clip-rule="nonzero"/></clipPath><clipPath id="8a7998faf1"><path d="M 97.773438 16.273438 L 323.375 54.089844 L 278.367188 322.59375 L 52.765625 284.777344 Z M 97.773438 16.273438 " clip-rule="nonzero"/></clipPath><clipPath id="6099496f20"><path d="M 248 124 L 271 124 L 271 170 L 248 170 Z M 248 124 " clip-rule="nonzero"/></clipPath><clipPath id="8056f04a6e"><path d="M 97.773438 16.273438 L 323.375 54.089844 L 278.367188 322.59375 L 52.765625 284.777344 Z M 97.773438 16.273438 " clip-rule="nonzero"/></clipPath><clipPath id="157192e929"><path d="M 97.773438 16.273438 L 323.375 54.089844 L 278.367188 322.59375 L 52.765625 284.777344 Z M 97.773438 16.273438 " clip-rule="nonzero"/></clipPath><clipPath id="80a3da65cb"><path d="M 254 99 L 264 99 L 264 109 L 254 109 Z M 254 99 " clip-rule="nonzero"/></clipPath><clipPath id="f84ee8fbcc"><path d="M 97.773438 16.273438 L 323.375 54.089844 L 278.367188 322.59375 L 52.765625 284.777344 Z M 97.773438 16.273438 " clip-rule="nonzero"/></clipPath><clipPath id="bde8a0a585"><path d="M 97.773438 16.273438 L 323.375 54.089844 L 278.367188 322.59375 L 52.765625 284.777344 Z M 97.773438 16.273438 " clip-rule="nonzero"/></clipPath><clipPath id="4e8636aa39"><path d="M 228 173 L 238 173 L 238 183 L 228 183 Z M 228 173 " clip-rule="nonzero"/></clipPath><clipPath id="9f4250066b"><path d="M 97.773438 16.273438 L 323.375 54.089844 L 278.367188 322.59375 L 52.765625 284.777344 Z M 97.773438 16.273438 " clip-rule="nonzero"/></clipPath><clipPath id="7a82f9161c"><path d="M 97.773438 16.273438 L 323.375 54.089844 L 278.367188 322.59375 L 52.765625 284.777344 Z M 97.773438 16.273438 " clip-rule="nonzero"/></clipPath><clipPath id="e14fc10bff"><path d="M 266 14 L 297.761719 14 L 297.761719 64 L 266 64 Z M 266 14 " clip-rule="nonzero"/></clipPath><clipPath id="d480f8142c"><rect x="0" width="298" y="0" height="80"/></clipPath></defs><g clip-path="url(#d5bc124ff0)"><path fill="#ffffff" d="M 419.425781 273.242188 C 415.523438 275.238281 411.269531 277.152344 406.769531 278.9375 C 405.898438 279.28125 405.003906 279.445312 404.121094 279.445312 C 401.234375 279.445312 398.507812 277.695312 397.386719 274.832031 C 395.921875 271.089844 397.75 266.867188 401.46875 265.394531 C 405.539062 263.78125 409.371094 262.054688 412.863281 260.269531 C 416.425781 258.445312 420.78125 259.871094 422.59375 263.453125 C 424.40625 267.039062 422.988281 271.417969 419.425781 273.242188 M 241.195312 284.46875 C 240.519531 287.941406 237.492188 290.351562 234.101562 290.351562 C 233.640625 290.351562 233.175781 290.308594 232.707031 290.214844 C 227.191406 289.132812 221.785156 287.902344 216.644531 286.558594 C 212.777344 285.546875 210.457031 281.574219 211.460938 277.683594 C 212.464844 273.792969 216.414062 271.457031 220.28125 272.46875 C 225.140625 273.742188 230.253906 274.90625 235.476562 275.929688 C 239.398438 276.699219 241.957031 280.519531 241.195312 284.46875 M 202.449219 274.832031 C 201.328125 277.695312 198.601562 279.445312 195.714844 279.445312 C 194.835938 279.445312 193.9375 279.28125 193.066406 278.9375 C 188.570312 277.152344 184.3125 275.238281 180.410156 273.242188 C 176.851562 271.417969 175.433594 267.039062 177.246094 263.453125 C 179.054688 259.871094 183.414062 258.445312 186.972656 260.269531 C 190.464844 262.054688 194.300781 263.78125 198.371094 265.394531 C 202.085938 266.867188 203.914062 271.089844 202.449219 274.832031 M 416.640625 234.964844 C 431.855469 228.1875 443.929688 220.214844 452.570312 211.421875 L 452.570312 266.929688 C 448.441406 280.054688 433.804688 292.902344 411.015625 303.054688 C 381.457031 316.21875 342.003906 323.46875 299.921875 323.46875 C 257.835938 323.46875 218.382812 316.21875 188.828125 303.054688 C 166.035156 292.902344 151.402344 280.054688 147.269531 266.929688 L 147.269531 211.421875 C 155.910156 220.214844 167.988281 228.1875 183.203125 234.964844 C 214.496094 248.902344 255.949219 256.582031 299.921875 256.582031 C 343.894531 256.582031 385.34375 248.902344 416.640625 234.964844 Z M 405.308594 130.234375 C 435.859375 142.03125 452.679688 158.6875 452.679688 177.136719 C 452.679688 195.582031 435.859375 212.238281 405.308594 224.035156 C 377.046875 234.949219 339.617188 240.960938 299.917969 240.960938 C 260.21875 240.960938 222.789062 234.949219 194.527344 224.035156 C 163.980469 212.238281 147.15625 195.582031 147.15625 177.136719 C 147.15625 158.6875 163.980469 142.03125 194.527344 130.234375 C 222.789062 119.320312 260.21875 113.308594 299.917969 113.308594 C 339.617188 113.308594 377.046875 119.320312 405.308594 130.234375 Z M 422.59375 344.550781 C 424.40625 348.132812 422.988281 352.515625 419.425781 354.335938 C 415.523438 356.332031 411.265625 358.25 406.769531 360.03125 C 405.898438 360.375 405.003906 360.539062 404.121094 360.539062 C 401.234375 360.539062 398.507812 358.789062 397.386719 355.925781 C 395.921875 352.1875 397.75 347.960938 401.46875 346.488281 C 405.535156 344.875 409.371094 343.152344 412.863281 341.363281 C 416.425781 339.539062 420.78125 340.96875 422.59375 344.550781 M 241.195312 365.5625 C 240.519531 369.035156 237.492188 371.449219 234.101562 371.449219 C 233.640625 371.449219 233.175781 371.402344 232.707031 371.3125 C 227.191406 370.226562 221.789062 368.996094 216.644531 367.652344 C 212.777344 366.640625 210.457031 362.667969 211.460938 358.777344 C 212.464844 354.886719 216.414062 352.554688 220.28125 353.566406 C 225.140625 354.835938 230.253906 356 235.480469 357.023438 C 239.398438 357.796875 241.957031 361.617188 241.195312 365.5625 M 202.449219 355.925781 C 201.328125 358.789062 198.601562 360.539062 195.714844 360.539062 C 194.835938 360.539062 193.9375 360.375 193.066406 360.03125 C 188.570312 358.25 184.316406 356.332031 180.414062 354.335938 C 176.851562 352.515625 175.433594 348.132812 177.246094 344.550781 C 179.058594 340.964844 183.414062 339.539062 186.972656 341.363281 C 190.46875 343.152344 194.300781 344.875 198.371094 346.488281 C 202.085938 347.960938 203.914062 352.1875 202.449219 355.925781 M 299.921875 338.777344 C 255.949219 338.777344 214.496094 331.101562 183.203125 317.160156 C 167.988281 310.382812 155.910156 302.414062 147.269531 293.617188 L 147.269531 349.128906 C 151.402344 362.253906 166.035156 375.097656 188.828125 385.25 C 218.382812 398.417969 257.835938 405.667969 299.921875 405.667969 C 342.003906 405.667969 381.457031 398.417969 411.015625 385.25 C 433.804688 375.097656 448.441406 362.253906 452.574219 349.125 L 452.574219 293.617188 C 443.929688 302.414062 431.855469 310.382812 416.640625 317.160156 C 385.34375 331.101562 343.894531 338.777344 299.921875 338.777344 M 422.59375 428.460938 C 424.40625 432.042969 422.988281 436.425781 419.425781 438.25 C 415.527344 440.246094 411.269531 442.160156 406.769531 443.941406 C 405.898438 444.289062 405.003906 444.449219 404.121094 444.449219 C 401.234375 444.449219 398.507812 442.703125 397.386719 439.839844 C 395.921875 436.097656 397.75 431.871094 401.46875 430.398438 C 405.539062 428.785156 409.375 427.0625 412.863281 425.277344 C 416.425781 423.453125 420.78125 424.878906 422.59375 428.460938 M 241.195312 449.476562 C 240.519531 452.949219 237.492188 455.359375 234.101562 455.359375 C 233.640625 455.359375 233.175781 455.316406 232.707031 455.222656 C 227.191406 454.140625 221.785156 452.910156 216.644531 451.566406 C 212.777344 450.554688 210.457031 446.582031 211.460938 442.691406 C 212.464844 438.800781 216.414062 436.46875 220.28125 437.476562 C 225.140625 438.746094 230.253906 439.910156 235.480469 440.9375 C 239.398438 441.707031 241.957031 445.53125 241.195312 449.476562 M 202.449219 439.839844 C 201.328125 442.703125 198.601562 444.449219 195.714844 444.449219 C 194.835938 444.449219 193.9375 444.289062 193.066406 443.941406 C 188.570312 442.160156 184.3125 440.246094 180.410156 438.25 C 176.851562 436.425781 175.433594 432.042969 177.246094 428.460938 C 179.058594 424.878906 183.414062 423.453125 186.972656 425.277344 C 190.464844 427.0625 194.296875 428.785156 198.371094 430.398438 C 202.085938 431.871094 203.914062 436.097656 202.449219 439.839844 M 299.921875 419.65625 C 255.949219 419.65625 214.496094 411.976562 183.203125 398.039062 C 167.988281 391.261719 155.910156 383.289062 147.269531 374.496094 L 147.269531 430.003906 C 151.402344 443.128906 166.035156 455.976562 188.828125 466.128906 C 218.382812 479.292969 257.835938 486.542969 299.921875 486.542969 C 342.003906 486.542969 381.457031 479.292969 411.015625 466.128906 C 433.804688 455.976562 448.441406 443.128906 452.570312 430.003906 L 452.570312 374.496094 C 443.929688 383.289062 431.855469 391.261719 416.640625 398.039062 C 385.34375 411.976562 343.894531 419.65625 299.921875 419.65625 " fill-opacity="1" fill-rule="evenodd"/></g><g clip-path="url(#563308937d)"><g clip-path="url(#09c109e976)"><g clip-path="url(#c3b6f643d0)"><path fill="#89b4fa" d="M 230.644531 38.566406 C 273.195312 45.96875 305.011719 81.75 308.671875 125.246094 C 312.246094 167.710938 284.460938 208.898438 246.078125 222.496094 C 223.71875 230.414062 201.417969 229.628906 179.234375 221.679688 C 172.359375 219.214844 165.855469 215.976562 159.808594 211.890625 C 158.222656 210.816406 157.351562 211.042969 156.058594 212.347656 C 134.339844 234.277344 112.566406 256.15625 90.804688 278.046875 C 88.359375 280.507812 85.949219 282.996094 83.460938 285.414062 C 79.386719 289.371094 74.488281 289.441406 70.382812 285.542969 C 66.640625 281.988281 62.945312 278.386719 59.324219 274.710938 C 54.644531 269.96875 54.613281 264.921875 59.367188 260.28125 C 72.621094 247.339844 85.949219 234.476562 99.25 221.585938 C 110.546875 210.636719 121.820312 199.660156 133.183594 188.78125 C 134.632812 187.394531 134.71875 186.550781 133.601562 184.867188 C 109.074219 148.015625 111.910156 96.128906 145.675781 63.320312 C 164.761719 44.777344 187.988281 36.296875 214.523438 36.773438 C 217.480469 36.828125 220.441406 37.058594 223.382812 37.378906 C 225.820312 37.644531 228.226562 38.160156 230.644531 38.566406 Z M 298.257812 146.5625 C 306.015625 98.914062 274.875 55.40625 227.8125 47.445312 C 177.589844 38.949219 136.058594 71.582031 128.34375 115.234375 C 120.785156 157.988281 147.496094 207.882812 200.722656 216.410156 C 247.117188 223.84375 290.078125 193.058594 298.257812 146.5625 Z M 76.4375 276.675781 C 77.238281 276.523438 77.632812 275.953125 78.105469 275.476562 C 100.933594 252.519531 123.757812 229.5625 146.578125 206.597656 C 147.941406 205.226562 150.167969 203.878906 150.308594 202.363281 C 150.457031 200.765625 148.054688 199.441406 146.726562 198.039062 C 142.917969 194.003906 142.90625 194.03125 138.894531 197.929688 C 122.949219 213.421875 107 228.90625 91.054688 244.398438 C 83.601562 251.640625 76.179688 258.925781 68.6875 266.132812 C 67.503906 267.273438 67.476562 267.976562 68.695312 269.101562 C 70.996094 271.214844 73.140625 273.496094 75.359375 275.699219 C 75.710938 276.050781 76.097656 276.371094 76.4375 276.675781 Z M 76.4375 276.675781 " fill-opacity="1" fill-rule="evenodd"/></g></g></g><g clip-path="url(#79d8212aea)"><g clip-path="url(#f95c28a2da)"><g clip-path="url(#bdfacf8b38)"><path fill="#89b4fa" d="M 199.324219 207.527344 C 156.742188 200.113281 128.371094 158.988281 135.972656 115.582031 C 143.582031 72.125 182.519531 45.078125 226.234375 52.339844 C 268.734375 59.398438 296.558594 100.078125 289.042969 143.375 C 281.71875 185.546875 240.871094 214.757812 199.324219 207.527344 Z M 201.300781 198.894531 C 238.546875 204.960938 273.996094 178.859375 280.230469 140.789062 C 286.519531 102.386719 261.582031 67.117188 223.742188 60.886719 C 185.835938 54.644531 150.679688 79.800781 144.535156 117.558594 C 138.246094 156.21875 163.765625 192.78125 201.300781 198.894531 Z M 201.300781 198.894531 " fill-opacity="1" fill-rule="evenodd"/></g></g></g><g clip-path="url(#d2919fff39)"><g clip-path="url(#759b9dfcac)"><g clip-path="url(#8a7998faf1)"><path fill="#89b4fa" d="M 221.578125 66.675781 C 230.859375 68.195312 238.191406 70.90625 244.988281 75.011719 C 247.539062 76.550781 248.214844 78.816406 247.050781 81.054688 C 245.996094 83.09375 243.347656 83.804688 240.839844 82.695312 C 240.148438 82.390625 239.503906 81.972656 238.832031 81.617188 C 227.136719 75.449219 214.78125 73.359375 201.753906 75.800781 C 191.265625 77.765625 182.082031 82.296875 174.601562 90.042969 C 172.230469 92.503906 169.785156 92.785156 167.722656 90.894531 C 165.648438 88.992188 165.703125 86.246094 168.183594 83.789062 C 178.21875 73.863281 190.402344 68.320312 204.320312 66.515625 C 210.554688 65.707031 216.796875 65.800781 221.578125 66.675781 Z M 221.578125 66.675781 " fill-opacity="1" fill-rule="evenodd"/></g></g></g><g clip-path="url(#6099496f20)"><g clip-path="url(#8056f04a6e)"><g clip-path="url(#157192e929)"><path fill="#89b4fa" d="M 269.738281 139.097656 C 267.925781 149.152344 264.132812 158.351562 257.851562 166.46875 C 257.390625 167.066406 256.914062 167.675781 256.359375 168.183594 C 254.378906 169.988281 251.929688 170.101562 250.1875 168.519531 C 248.417969 166.921875 248.167969 164.4375 249.882812 162.367188 C 253.3125 158.226562 255.941406 153.652344 257.996094 148.703125 C 260.589844 142.457031 261.839844 135.945312 261.972656 129.199219 C 262.03125 126.175781 263.691406 124.214844 266.175781 124.191406 C 268.785156 124.164062 270.714844 126.226562 270.636719 129.253906 C 270.550781 132.546875 270.394531 135.847656 269.738281 139.097656 Z M 269.738281 139.097656 " fill-opacity="1" fill-rule="evenodd"/></g></g></g><g clip-path="url(#80a3da65cb)"><g clip-path="url(#f84ee8fbcc)"><g clip-path="url(#bde8a0a585)"><path fill="#89b4fa" d="M 258.550781 108.121094 C 255.917969 107.699219 254.242188 105.558594 254.65625 103.148438 C 255.0625 100.792969 257.5 99.132812 259.9375 99.550781 C 262.3125 99.957031 264 102.160156 263.6875 104.449219 C 263.355469 106.886719 261.066406 108.523438 258.550781 108.121094 Z M 258.550781 108.121094 " fill-opacity="1" fill-rule="evenodd"/></g></g></g><g clip-path="url(#4e8636aa39)"><g clip-path="url(#9f4250066b)"><g clip-path="url(#7a82f9161c)"><path fill="#89b4fa" d="M 237.265625 178.722656 C 236.941406 181.019531 234.679688 182.769531 232.375 182.503906 C 229.886719 182.21875 228.105469 180.011719 228.375 177.546875 C 228.628906 175.203125 231.082031 173.308594 233.425781 173.640625 C 235.894531 173.992188 237.609375 176.265625 237.265625 178.722656 Z M 237.265625 178.722656 " fill-opacity="1" fill-rule="evenodd"/></g></g></g><g transform="matrix(1, 0, 0, 1, 152, 485)"><g clip-path="url(#d480f8142c)"><g fill="#89b4fa" fill-opacity="1"><g transform="translate(0.204188, 61.638056)"><g><path d="M 5.875 -47.359375 L 34.953125 -47.359375 L 34.953125 -38.734375 L 13.71875 -38.734375 L 13.71875 -28.09375 L 32.015625 -28.09375 L 32.015625 -19.59375 L 13.71875 -19.59375 L 13.71875 -6.984375 L 34.953125 -6.984375 L 34.953125 1.640625 L 4.25 1.640625 L 4.25 -47.359375 Z M 5.875 -47.359375 "/></g></g></g><g fill="#89b4fa" fill-opacity="1"><g transform="translate(35.811539, 61.638056)"><g><path d="M 12.546875 -32.65625 C 12.890625 -32.96875 13.222656 -33.253906 13.546875 -33.515625 C 13.878906 -33.773438 14.242188 -34.015625 14.640625 -34.234375 C 15.160156 -34.578125 15.703125 -34.890625 16.265625 -35.171875 C 16.828125 -35.460938 17.425781 -35.691406 18.0625 -35.859375 C 18.695312 -36.035156 19.328125 -36.164062 19.953125 -36.25 C 20.585938 -36.34375 21.253906 -36.390625 21.953125 -36.390625 C 24.992188 -36.390625 27.519531 -35.625 29.53125 -34.09375 C 30.75 -33.1875 31.75 -32.054688 32.53125 -30.703125 C 33.625 -31.921875 34.78125 -33.007812 36 -33.96875 C 36.4375 -34.269531 36.894531 -34.550781 37.375 -34.8125 C 37.851562 -35.082031 38.351562 -35.3125 38.875 -35.5 C 39.394531 -35.695312 39.925781 -35.859375 40.46875 -35.984375 C 41.007812 -36.117188 41.5625 -36.21875 42.125 -36.28125 C 42.695312 -36.351562 43.289062 -36.390625 43.90625 -36.390625 C 44.164062 -36.390625 44.414062 -36.390625 44.65625 -36.390625 C 44.894531 -36.390625 45.132812 -36.378906 45.375 -36.359375 C 45.613281 -36.335938 45.851562 -36.300781 46.09375 -36.25 C 46.332031 -36.207031 46.5625 -36.164062 46.78125 -36.125 C 47 -36.082031 47.210938 -36.039062 47.421875 -36 C 47.640625 -35.957031 47.859375 -35.898438 48.078125 -35.828125 C 48.296875 -35.765625 48.515625 -35.6875 48.734375 -35.59375 C 48.953125 -35.507812 49.171875 -35.425781 49.390625 -35.34375 C 49.773438 -35.164062 50.15625 -34.96875 50.53125 -34.75 C 50.90625 -34.53125 51.253906 -34.289062 51.578125 -34.03125 C 51.898438 -33.769531 52.210938 -33.5 52.515625 -33.21875 C 52.828125 -32.9375 53.113281 -32.617188 53.375 -32.265625 C 54.457031 -31.003906 55.238281 -29.503906 55.71875 -27.765625 C 56.25 -26.066406 56.515625 -24.191406 56.515625 -22.140625 L 56.515625 1.640625 L 47.359375 1.640625 L 47.359375 -21.6875 C 47.359375 -23.6875 46.925781 -25.273438 46.0625 -26.453125 C 45.269531 -27.453125 44.203125 -27.953125 42.859375 -27.953125 C 42.066406 -27.953125 41.328125 -27.800781 40.640625 -27.5 C 39.847656 -27.15625 39.101562 -26.695312 38.40625 -26.125 C 37.664062 -25.519531 36.945312 -24.828125 36.25 -24.046875 C 35.988281 -23.691406 35.707031 -23.316406 35.40625 -22.921875 C 35.101562 -22.535156 34.84375 -22.164062 34.625 -21.8125 L 34.625 1.640625 L 25.484375 1.640625 L 25.484375 -21.6875 C 25.484375 -23.6875 25.046875 -25.273438 24.171875 -26.453125 C 23.390625 -27.453125 22.320312 -27.953125 20.96875 -27.953125 C 20.226562 -27.953125 19.488281 -27.800781 18.75 -27.5 C 18.394531 -27.375 18.019531 -27.203125 17.625 -26.984375 C 17.238281 -26.765625 16.875 -26.503906 16.53125 -26.203125 C 16.394531 -26.109375 16.257812 -26.003906 16.125 -25.890625 C 16 -25.785156 15.878906 -25.675781 15.765625 -25.5625 C 15.660156 -25.457031 15.539062 -25.351562 15.40625 -25.25 C 15.28125 -25.144531 15.160156 -25.035156 15.046875 -24.921875 C 14.941406 -24.816406 14.832031 -24.695312 14.71875 -24.5625 C 14.613281 -24.4375 14.5 -24.304688 14.375 -24.171875 C 14.113281 -23.828125 13.828125 -23.46875 13.515625 -23.09375 C 13.210938 -22.71875 12.953125 -22.359375 12.734375 -22.015625 L 12.734375 1.640625 L 3.59375 1.640625 L 3.59375 -35.609375 L 12.546875 -35.609375 Z M 12.546875 -32.65625 "/></g></g></g><g fill="#89b4fa" fill-opacity="1"><g transform="translate(95.592668, 61.638056)"><g><path d="M 3.859375 -35.609375 C 4.722656 -35.609375 5.523438 -35.539062 6.265625 -35.40625 C 7.003906 -35.28125 7.710938 -35.070312 8.390625 -34.78125 C 9.066406 -34.5 9.6875 -34.140625 10.25 -33.703125 C 10.820312 -33.273438 11.300781 -32.753906 11.6875 -32.140625 C 12.425781 -32.878906 13.273438 -33.53125 14.234375 -34.09375 C 14.503906 -34.269531 14.769531 -34.429688 15.03125 -34.578125 C 15.289062 -34.734375 15.570312 -34.878906 15.875 -35.015625 C 16.175781 -35.148438 16.476562 -35.269531 16.78125 -35.375 C 17.09375 -35.476562 17.398438 -35.597656 17.703125 -35.734375 C 18.398438 -35.953125 19.117188 -36.113281 19.859375 -36.21875 C 20.597656 -36.332031 21.359375 -36.390625 22.140625 -36.390625 C 24.316406 -36.390625 26.414062 -35.953125 28.4375 -35.078125 C 30.46875 -34.210938 32.25 -32.953125 33.78125 -31.296875 C 35.300781 -29.640625 36.5 -27.632812 37.375 -25.28125 C 37.675781 -24.5 37.921875 -23.671875 38.109375 -22.796875 C 38.304688 -21.929688 38.457031 -21.039062 38.5625 -20.125 C 38.675781 -19.207031 38.734375 -18.269531 38.734375 -17.3125 C 38.734375 -14.4375 38.300781 -11.78125 37.4375 -9.34375 C 37 -8.164062 36.484375 -7.050781 35.890625 -6 C 35.304688 -4.957031 34.625 -4.003906 33.84375 -3.140625 C 33.582031 -2.785156 33.285156 -2.457031 32.953125 -2.15625 C 32.628906 -1.851562 32.289062 -1.546875 31.9375 -1.234375 C 31.59375 -0.929688 31.242188 -0.648438 30.890625 -0.390625 C 30.546875 -0.128906 30.175781 0.109375 29.78125 0.328125 C 29.394531 0.546875 29.003906 0.742188 28.609375 0.921875 C 27.609375 1.441406 26.570312 1.820312 25.5 2.0625 C 24.4375 2.300781 23.363281 2.421875 22.28125 2.421875 C 19.96875 2.421875 17.851562 1.960938 15.9375 1.046875 C 15.238281 0.742188 14.585938 0.394531 13.984375 0 L 13.984375 16 L 4.828125 16 L 4.828125 -25.28125 C 4.828125 -26.28125 4.65625 -26.929688 4.3125 -27.234375 C 3.914062 -27.585938 3.347656 -27.765625 2.609375 -27.765625 L 0.453125 -27.765625 L 1.046875 -29.859375 L 2.28125 -34.421875 L 2.609375 -35.609375 Z M 29.46875 -17.109375 C 29.46875 -18.023438 29.398438 -18.875 29.265625 -19.65625 C 29.140625 -20.445312 28.957031 -21.175781 28.71875 -21.84375 C 28.476562 -22.519531 28.203125 -23.140625 27.890625 -23.703125 C 27.585938 -24.273438 27.238281 -24.800781 26.84375 -25.28125 C 26.0625 -26.195312 25.160156 -26.882812 24.140625 -27.34375 C 23.117188 -27.800781 22.019531 -28.03125 20.84375 -28.03125 C 20.050781 -28.03125 19.304688 -27.929688 18.609375 -27.734375 C 17.921875 -27.535156 17.269531 -27.238281 16.65625 -26.84375 C 15.519531 -26.144531 14.628906 -25.40625 13.984375 -24.625 L 13.984375 -9.140625 C 14.898438 -8.316406 15.898438 -7.625 16.984375 -7.0625 C 18.203125 -6.40625 19.570312 -6.078125 21.09375 -6.078125 C 22.320312 -6.078125 23.4375 -6.316406 24.4375 -6.796875 C 25.4375 -7.316406 26.304688 -8.035156 27.046875 -8.953125 C 27.441406 -9.429688 27.78125 -9.953125 28.0625 -10.515625 C 28.34375 -11.078125 28.59375 -11.707031 28.8125 -12.40625 C 29.03125 -13.101562 29.191406 -13.84375 29.296875 -14.625 C 29.410156 -15.414062 29.46875 -16.242188 29.46875 -17.109375 Z M 29.46875 -17.109375 "/></g></g><g transform="translate(135.642766, 61.638056)"><g><path d="M 12.40625 -11.234375 C 12.40625 -9.273438 12.753906 -7.882812 13.453125 -7.0625 C 14.109375 -6.3125 15.066406 -5.9375 16.328125 -5.9375 C 17.023438 -5.9375 17.703125 -6.023438 18.359375 -6.203125 C 19.054688 -6.378906 19.664062 -6.578125 20.1875 -6.796875 L 21.890625 -7.515625 L 22.40625 -5.75 L 23.84375 -0.984375 L 24.234375 0.390625 L 22.9375 0.984375 C 22.0625 1.367188 20.992188 1.691406 19.734375 1.953125 C 18.460938 2.265625 17.066406 2.421875 15.546875 2.421875 C 13.847656 2.421875 12.257812 2.179688 10.78125 1.703125 C 9.300781 1.179688 7.992188 0.375 6.859375 -0.71875 C 5.722656 -1.8125 4.832031 -3.179688 4.1875 -4.828125 C 3.570312 -6.441406 3.265625 -8.382812 3.265625 -10.65625 L 3.265625 -49.96875 L 12.40625 -49.96875 Z M 12.40625 -11.234375 "/></g></g></g><g fill="#89b4fa" fill-opacity="1"><g transform="translate(157.26851, 61.638056)"><g><path d="M 28.8125 -16.984375 C 28.8125 -18.503906 28.570312 -19.941406 28.09375 -21.296875 C 27.613281 -22.597656 26.957031 -23.753906 26.125 -24.765625 C 25.820312 -25.066406 25.519531 -25.359375 25.21875 -25.640625 C 24.914062 -25.921875 24.585938 -26.179688 24.234375 -26.421875 C 23.890625 -26.660156 23.519531 -26.867188 23.125 -27.046875 C 22.601562 -27.347656 22.035156 -27.5625 21.421875 -27.6875 C 20.816406 -27.820312 20.1875 -27.890625 19.53125 -27.890625 C 16.613281 -27.890625 14.347656 -26.957031 12.734375 -25.09375 C 11.078125 -23.125 10.25 -20.460938 10.25 -17.109375 C 10.25 -15.585938 10.488281 -14.148438 10.96875 -12.796875 C 11.0625 -12.585938 11.148438 -12.375 11.234375 -12.15625 C 11.316406 -11.9375 11.410156 -11.71875 11.515625 -11.5 C 11.628906 -11.28125 11.738281 -11.070312 11.84375 -10.875 C 11.957031 -10.675781 12.066406 -10.488281 12.171875 -10.3125 C 12.285156 -10.144531 12.40625 -9.960938 12.53125 -9.765625 C 12.664062 -9.566406 12.820312 -9.40625 13 -9.28125 C 13.257812 -8.925781 13.539062 -8.609375 13.84375 -8.328125 C 14.15625 -8.046875 14.484375 -7.785156 14.828125 -7.546875 C 15.179688 -7.304688 15.550781 -7.097656 15.9375 -6.921875 C 16.457031 -6.617188 17.019531 -6.398438 17.625 -6.265625 C 18.238281 -6.140625 18.875 -6.078125 19.53125 -6.078125 C 21.007812 -6.078125 22.316406 -6.335938 23.453125 -6.859375 C 24.015625 -7.117188 24.523438 -7.421875 24.984375 -7.765625 C 25.441406 -8.117188 25.867188 -8.535156 26.265625 -9.015625 C 27.085938 -9.929688 27.71875 -11.0625 28.15625 -12.40625 C 28.59375 -13.757812 28.8125 -15.285156 28.8125 -16.984375 Z M 0.984375 -16.984375 C 0.984375 -19.941406 1.460938 -22.617188 2.421875 -25.015625 C 3.378906 -27.410156 4.679688 -29.445312 6.328125 -31.125 C 7.984375 -32.800781 9.945312 -34.097656 12.21875 -35.015625 C 14.476562 -35.929688 16.914062 -36.390625 19.53125 -36.390625 C 20.1875 -36.390625 20.816406 -36.351562 21.421875 -36.28125 C 22.035156 -36.21875 22.644531 -36.128906 23.25 -36.015625 C 23.863281 -35.910156 24.460938 -35.769531 25.046875 -35.59375 C 25.640625 -35.425781 26.21875 -35.234375 26.78125 -35.015625 C 27.914062 -34.578125 28.972656 -34.03125 29.953125 -33.375 C 30.929688 -32.726562 31.859375 -31.988281 32.734375 -31.15625 C 34.390625 -29.457031 35.695312 -27.410156 36.65625 -25.015625 C 37.613281 -22.671875 38.09375 -20.035156 38.09375 -17.109375 C 38.09375 -14.191406 37.632812 -11.535156 36.71875 -9.140625 C 35.757812 -6.742188 34.453125 -4.695312 32.796875 -3 C 31.960938 -2.132812 31.046875 -1.363281 30.046875 -0.6875 C 29.046875 -0.0078125 27.976562 0.566406 26.84375 1.046875 C 24.582031 1.960938 22.144531 2.421875 19.53125 2.421875 C 18.226562 2.421875 16.953125 2.300781 15.703125 2.0625 C 14.460938 1.820312 13.28125 1.460938 12.15625 0.984375 C 9.882812 0.0234375 7.921875 -1.3125 6.265625 -3.03125 C 4.609375 -4.757812 3.304688 -6.820312 2.359375 -9.21875 C 1.441406 -11.5625 0.984375 -14.148438 0.984375 -16.984375 Z M 0.984375 -16.984375 "/></g></g></g><g fill="#89b4fa" fill-opacity="1"><g transform="translate(196.338578, 61.638056)"><g><path d="M 11.109375 1.640625 L 3.59375 1.640625 L 3.59375 -35.609375 L 12.734375 -35.609375 L 12.734375 1.640625 Z M 8.171875 -38.15625 C 6.597656 -38.15625 5.242188 -38.71875 4.109375 -39.84375 C 2.984375 -40.976562 2.421875 -42.332031 2.421875 -43.90625 C 2.421875 -45.601562 2.953125 -46.984375 4.015625 -48.046875 C 5.085938 -49.117188 6.472656 -49.65625 8.171875 -49.65625 C 8.953125 -49.65625 9.691406 -49.507812 10.390625 -49.21875 C 11.085938 -48.9375 11.707031 -48.523438 12.25 -47.984375 C 12.789062 -47.441406 13.203125 -46.820312 13.484375 -46.125 C 13.773438 -45.425781 13.921875 -44.6875 13.921875 -43.90625 C 13.921875 -42.207031 13.382812 -40.820312 12.3125 -39.75 C 11.25 -38.6875 9.867188 -38.15625 8.171875 -38.15625 Z M 8.171875 -38.15625 "/></g></g><g transform="translate(212.672223, 61.638056)"><g><path d="M 1.640625 -22.9375 C 1.640625 -26.457031 2.140625 -29.742188 3.140625 -32.796875 C 4.179688 -35.890625 5.679688 -38.566406 7.640625 -40.828125 C 9.648438 -43.097656 12.066406 -44.882812 14.890625 -46.1875 C 16.285156 -46.84375 17.785156 -47.332031 19.390625 -47.65625 C 21.003906 -47.976562 22.707031 -48.140625 24.5 -48.140625 C 28.070312 -48.140625 31.269531 -47.46875 34.09375 -46.125 C 36.925781 -44.769531 39.347656 -42.941406 41.359375 -40.640625 C 43.316406 -38.367188 44.816406 -35.707031 45.859375 -32.65625 C 46.898438 -29.613281 47.421875 -26.375 47.421875 -22.9375 C 47.421875 -19.320312 46.898438 -16.179688 45.859375 -13.515625 C 45.640625 -12.867188 45.390625 -12.226562 45.109375 -11.59375 C 44.828125 -10.96875 44.53125 -10.367188 44.21875 -9.796875 C 43.914062 -9.234375 43.613281 -8.691406 43.3125 -8.171875 L 47.5625 -5.8125 L 49 -5.03125 L 48.21875 -3.59375 L 45.40625 1.5625 L 44.484375 3.203125 L 42.984375 2.09375 L 37.625 -1.890625 C 36.84375 -1.328125 36.035156 -0.804688 35.203125 -0.328125 C 34.378906 0.148438 33.488281 0.585938 32.53125 0.984375 C 30.175781 1.941406 27.5 2.421875 24.5 2.421875 C 20.882812 2.421875 17.660156 1.742188 14.828125 0.390625 C 11.992188 -0.960938 9.597656 -2.789062 7.640625 -5.09375 C 5.679688 -7.445312 4.179688 -10.148438 3.140625 -13.203125 C 2.140625 -16.242188 1.640625 -19.488281 1.640625 -22.9375 Z M 26.59375 -10.78125 L 29.203125 -15.546875 L 30.109375 -17.1875 L 31.625 -16.078125 L 36 -12.9375 C 36.257812 -13.5 36.484375 -14.0625 36.671875 -14.625 C 36.867188 -15.195312 37.035156 -15.8125 37.171875 -16.46875 C 37.609375 -18.332031 37.828125 -20.488281 37.828125 -22.9375 C 37.828125 -25.113281 37.519531 -27.222656 36.90625 -29.265625 C 36.257812 -31.222656 35.367188 -32.988281 34.234375 -34.5625 C 33.835938 -35.082031 33.421875 -35.5625 32.984375 -36 C 32.554688 -36.4375 32.085938 -36.835938 31.578125 -37.203125 C 31.078125 -37.578125 30.546875 -37.914062 29.984375 -38.21875 C 28.421875 -39.09375 26.59375 -39.53125 24.5 -39.53125 C 22.40625 -39.53125 20.539062 -39.125 18.90625 -38.3125 C 17.28125 -37.507812 15.921875 -36.390625 14.828125 -34.953125 C 14.609375 -34.648438 14.390625 -34.34375 14.171875 -34.03125 C 13.953125 -33.726562 13.753906 -33.410156 13.578125 -33.078125 C 13.410156 -32.753906 13.238281 -32.40625 13.0625 -32.03125 C 12.882812 -31.664062 12.71875 -31.285156 12.5625 -30.890625 C 12.414062 -30.503906 12.28125 -30.113281 12.15625 -29.71875 C 11.539062 -27.632812 11.234375 -25.375 11.234375 -22.9375 C 11.234375 -20.75 11.539062 -18.613281 12.15625 -16.53125 C 12.457031 -15.53125 12.828125 -14.582031 13.265625 -13.6875 C 13.703125 -12.789062 14.203125 -11.953125 14.765625 -11.171875 C 15.066406 -10.773438 15.367188 -10.414062 15.671875 -10.09375 C 15.984375 -9.769531 16.3125 -9.453125 16.65625 -9.140625 C 17.007812 -8.835938 17.367188 -8.554688 17.734375 -8.296875 C 18.109375 -8.035156 18.488281 -7.773438 18.875 -7.515625 C 19.664062 -7.078125 20.515625 -6.75 21.421875 -6.53125 C 22.335938 -6.3125 23.320312 -6.203125 24.375 -6.203125 C 26.019531 -6.203125 27.5 -6.398438 28.8125 -6.796875 C 28.9375 -6.835938 29.078125 -6.878906 29.234375 -6.921875 C 29.390625 -6.960938 29.507812 -7.007812 29.59375 -7.0625 L 27.171875 -8.625 L 25.875 -9.40625 Z M 26.59375 -10.78125 "/></g></g></g><g clip-path="url(#e14fc10bff)"><g fill="#89b4fa" fill-opacity="1"><g transform="translate(262.391836, 61.638056)"><g><path d="M 33.0625 1.640625 L 4.25 1.640625 L 4.25 -47.359375 L 13.71875 -47.359375 L 13.71875 -7.1875 L 34.6875 -7.1875 L 34.6875 1.640625 Z M 33.0625 1.640625 "/></g></g></g></g></g></g></svg>